<svg width="54" height="54" viewBox="0 0 54 54" fill="none" xmlns="http://www.w3.org/2000/svg">
<path d="M47.25 54H10.9688C10.745 54 10.5304 53.9111 10.3721 53.7529C10.2139 53.5946 10.125 53.38 10.125 53.1562V0.84375C10.125 0.619974 10.2139 0.405362 10.3721 0.247129C10.5304 0.0888948 10.745 0 10.9688 0L38.5273 0C38.7511 4.77878e-05 38.9656 0.088974 39.1238 0.247219L47.8465 8.96991C48.0048 9.1281 48.0937 9.34268 48.0938 9.56644V53.1562C48.0938 53.38 48.0049 53.5946 47.8466 53.7529C47.6884 53.9111 47.4738 54 47.25 54Z" fill="url(#paint0_linear_2027_728)"/>
<path d="M5.90625 27.7982L9.28125 26.3073L11.637 29.9228H5.90625V27.7982Z" fill="url(#paint1_linear_2027_728)"/>
<path d="M46.4062 54H10.125C9.90122 54 9.68661 53.9111 9.52838 53.7529C9.37014 53.5946 9.28125 53.38 9.28125 53.1562V0.84375C9.28125 0.619974 9.37014 0.405362 9.52838 0.247129C9.68661 0.0888948 9.90122 0 10.125 0L38.0329 0L47.25 9.21712V53.1562C47.25 53.38 47.1611 53.5946 47.0029 53.7529C46.8446 53.9111 46.63 54 46.4062 54Z" fill="url(#paint2_linear_2027_728)"/>
<path d="M38.0332 0V8.37337C38.0332 8.59715 38.1221 8.81176 38.2803 8.97C38.4386 9.12823 38.6532 9.21712 38.877 9.21712H47.2503L43.116 4.239L38.0332 0Z" fill="url(#paint3_linear_2027_728)"/>
<path d="M38.8311 44.2969H7.39969C7.20354 44.297 7.00929 44.2584 6.82804 44.1834C6.6468 44.1084 6.48212 43.9984 6.34342 43.8597C6.20472 43.721 6.09472 43.5563 6.01971 43.3751C5.94469 43.1938 5.90614 42.9996 5.90625 42.8034V29.2899H38.8311C39.2271 29.2901 39.6068 29.4476 39.8868 29.7276C40.1669 30.0076 40.3243 30.3873 40.3245 30.7834V42.8034C40.3245 43.1995 40.1672 43.5794 39.8871 43.8594C39.607 44.1395 39.2272 44.2969 38.8311 44.2969Z" fill="url(#paint4_linear_2027_728)"/>
<path d="M9.28125 26.3073H7.398C7.20214 26.3072 7.00818 26.3457 6.8272 26.4206C6.64621 26.4954 6.48176 26.6052 6.34322 26.7437C6.20469 26.8821 6.0948 27.0465 6.01982 27.2275C5.94484 27.4084 5.90625 27.6024 5.90625 27.7982C5.90614 27.9941 5.94465 28.1882 6.01958 28.3692C6.09451 28.5503 6.20438 28.7147 6.34293 28.8533C6.48147 28.9918 6.64596 29.1017 6.827 29.1766C7.00804 29.2516 7.20207 29.2901 7.398 29.29H9.28125V26.3073Z" fill="url(#paint5_linear_2027_728)"/>
<path d="M14.7585 41.1342C14.1586 41.1342 13.6217 40.9801 13.1477 40.6719C12.6738 40.3636 12.2992 39.9162 12.0241 39.3295C11.7491 38.7429 11.6115 38.0303 11.6115 37.1918C11.6115 36.3433 11.7507 35.6274 12.0291 35.044C12.3108 34.4574 12.6903 34.0149 13.1676 33.7166C13.6449 33.415 14.1768 33.2642 14.7635 33.2642C15.2109 33.2642 15.5788 33.3404 15.8672 33.4929C16.1555 33.642 16.3842 33.8227 16.5533 34.0348C16.7223 34.2436 16.8532 34.4408 16.946 34.6264H17.0206V30.8182H18.8253V41H17.0554V39.7969H16.946C16.8532 39.9825 16.719 40.1797 16.5433 40.3885C16.3677 40.594 16.1357 40.7696 15.8473 40.9155C15.5589 41.0613 15.196 41.1342 14.7585 41.1342ZM15.2607 39.6577C15.6418 39.6577 15.9666 39.5549 16.2351 39.3494C16.5036 39.1406 16.7074 38.8506 16.8466 38.4794C16.9858 38.1082 17.0554 37.6757 17.0554 37.1818C17.0554 36.688 16.9858 36.2588 16.8466 35.8942C16.7107 35.5296 16.5085 35.2462 16.2401 35.044C15.9749 34.8419 15.6484 34.7408 15.2607 34.7408C14.8596 34.7408 14.5249 34.8452 14.2564 35.054C13.9879 35.2628 13.7857 35.5511 13.6499 35.919C13.514 36.2869 13.446 36.7079 13.446 37.1818C13.446 37.6591 13.514 38.085 13.6499 38.4595C13.7891 38.8307 13.9929 39.1241 14.2614 39.3395C14.5331 39.5516 14.8662 39.6577 15.2607 39.6577ZM23.744 41.1491C22.9983 41.1491 22.352 40.9851 21.8051 40.657C21.2582 40.3288 20.834 39.8698 20.5324 39.2798C20.2341 38.6899 20.085 38.0005 20.085 37.2116C20.085 36.4228 20.2341 35.7318 20.5324 35.1385C20.834 34.5452 21.2582 34.0845 21.8051 33.7564C22.352 33.4283 22.9983 33.2642 23.744 33.2642C24.4898 33.2642 25.1361 33.4283 25.683 33.7564C26.2298 34.0845 26.6524 34.5452 26.9507 35.1385C27.2523 35.7318 27.4031 36.4228 27.4031 37.2116C27.4031 38.0005 27.2523 38.6899 26.9507 39.2798C26.6524 39.8698 26.2298 40.3288 25.683 40.657C25.1361 40.9851 24.4898 41.1491 23.744 41.1491ZM23.754 39.7074C24.1583 39.7074 24.4964 39.5964 24.7682 39.3743C25.04 39.1489 25.2421 38.8473 25.3747 38.4695C25.5106 38.0916 25.5786 37.6707 25.5786 37.2067C25.5786 36.7393 25.5106 36.3168 25.3747 35.9389C25.2421 35.5578 25.04 35.2545 24.7682 35.0291C24.4964 34.8037 24.1583 34.6911 23.754 34.6911C23.3397 34.6911 22.995 34.8037 22.7199 35.0291C22.4481 35.2545 22.2443 35.5578 22.1084 35.9389C21.9758 36.3168 21.9095 36.7393 21.9095 37.2067C21.9095 37.6707 21.9758 38.0916 22.1084 38.4695C22.2443 38.8473 22.4481 39.1489 22.7199 39.3743C22.995 39.5964 23.3397 39.7074 23.754 39.7074ZM31.9316 41.1491C31.1693 41.1491 30.5147 40.9818 29.9678 40.647C29.4243 40.3123 29.005 39.8499 28.71 39.2599C28.4184 38.6667 28.2725 37.9839 28.2725 37.2116C28.2725 36.4361 28.4217 35.7517 28.72 35.1584C29.0183 34.5618 29.4392 34.0978 29.9828 33.7663C30.5296 33.4316 31.1759 33.2642 31.9217 33.2642C32.5415 33.2642 33.09 33.3786 33.5673 33.6072C34.0479 33.8326 34.4307 34.1525 34.7157 34.5668C35.0007 34.9777 35.1632 35.4583 35.2029 36.0085H33.4828C33.4132 35.6406 33.2474 35.334 32.9856 35.0888C32.7271 34.8402 32.3807 34.7159 31.9465 34.7159C31.5786 34.7159 31.2555 34.8153 30.9771 35.0142C30.6987 35.2098 30.4816 35.4915 30.3258 35.8594C30.1733 36.2273 30.0971 36.6681 30.0971 37.1818C30.0971 37.7022 30.1733 38.1496 30.3258 38.5241C30.4783 38.8954 30.692 39.1821 30.9671 39.3842C31.2455 39.5831 31.572 39.6825 31.9465 39.6825C32.2117 39.6825 32.4487 39.6328 32.6575 39.5334C32.8696 39.4306 33.0469 39.2831 33.1894 39.0909C33.332 38.8987 33.4297 38.665 33.4828 38.3899H35.2029C35.1598 38.9302 35.0007 39.4091 34.7257 39.8267C34.4506 40.241 34.076 40.5658 33.6021 40.8011C33.1281 41.0331 32.5713 41.1491 31.9316 41.1491Z" fill="white"/>
<defs>
<linearGradient id="paint0_linear_2027_728" x1="29.1094" y1="-26.989" x2="29.1094" y2="-24.824" gradientUnits="userSpaceOnUse">
<stop stop-color="#F3F7FF"/>
<stop offset="0.99" stop-color="#B5D1FF"/>
</linearGradient>
<linearGradient id="paint1_linear_2027_728" x1="8.77162" y1="25.6914" x2="8.77162" y2="100.996" gradientUnits="userSpaceOnUse">
<stop stop-color="#4EB9FD"/>
<stop offset="1" stop-color="#1B72FF"/>
</linearGradient>
<linearGradient id="paint2_linear_2027_728" x1="28.2656" y1="-4.58072" x2="28.2656" y2="129.918" gradientUnits="userSpaceOnUse">
<stop stop-color="#F3F7FF"/>
<stop offset="0.99" stop-color="#B5D1FF"/>
</linearGradient>
<linearGradient id="paint3_linear_2027_728" x1="42.6418" y1="-19.7682" x2="42.6418" y2="-3.37416" gradientUnits="userSpaceOnUse">
<stop stop-color="#F3F7FF"/>
<stop offset="0.99" stop-color="#B5D1FF"/>
</linearGradient>
<linearGradient id="paint4_linear_2027_728" x1="23.1154" y1="27.437" x2="23.1154" y2="71.6782" gradientUnits="userSpaceOnUse">
<stop stop-color="#52C1FF"/>
<stop offset="1" stop-color="#0015D5"/>
</linearGradient>
<linearGradient id="paint5_linear_2027_728" x1="7.59375" y1="13.7709" x2="7.59375" y2="36.8382" gradientUnits="userSpaceOnUse">
<stop stop-color="#1B72FF"/>
<stop offset="1" stop-color="#1B72FF"/>
</linearGradient>
</defs>
</svg>
