<svg width="54" height="54" viewBox="0 0 54 54" fill="none" xmlns="http://www.w3.org/2000/svg">
<rect width="54" height="54" rx="27" fill="#1B72FF"/>
<path d="M39.9679 23.9638L40.2405 39.2377H38.4435L38.171 23.9638H39.9679ZM40.3515 20.7536C40.3515 20.9286 40.3145 21.0935 40.2405 21.2483C40.1732 21.3963 40.0789 21.5309 39.9578 21.6521C39.8434 21.7665 39.7054 21.8573 39.5439 21.9246C39.3891 21.9919 39.2242 22.0256 39.0492 22.0256C38.8743 22.0256 38.7094 21.9919 38.5546 21.9246C38.4065 21.8573 38.2753 21.7665 38.1609 21.6521C38.0465 21.5309 37.9556 21.3963 37.8883 21.2483C37.821 21.0935 37.7874 20.9286 37.7874 20.7536C37.7874 20.5786 37.821 20.4137 37.8883 20.2589C37.9556 20.0974 38.0465 19.9595 38.1609 19.845C38.2753 19.7239 38.4065 19.6297 38.5546 19.5624C38.7094 19.4951 38.8743 19.4614 39.0492 19.4614C39.2242 19.4614 39.3891 19.4951 39.5439 19.5624C39.7054 19.6297 39.8434 19.7239 39.9578 19.845C40.0789 19.9595 40.1732 20.0974 40.2405 20.2589C40.3145 20.4137 40.3515 20.5786 40.3515 20.7536Z" fill="white"/>
<path d="M26.5611 24.3811H27.2981C27.5538 24.3811 27.7591 24.3508 27.9139 24.2903C28.0687 24.223 28.21 24.1119 28.3379 23.9571L33.1532 18.5058C33.2878 18.3308 33.4292 18.2097 33.5772 18.1424C33.7253 18.0751 33.907 18.0414 34.1224 18.0414H35.778L30.266 24.2701C30.1314 24.4316 30.0002 24.5662 29.8723 24.6739C29.7512 24.7748 29.62 24.859 29.4786 24.9263C29.6603 24.9868 29.8252 25.0777 29.9733 25.1988C30.1213 25.3132 30.266 25.4647 30.4074 25.6531L36.1616 32.5077H34.4656C34.3377 32.5077 34.2267 32.5009 34.1325 32.4875C34.045 32.4673 33.9676 32.4404 33.9003 32.4067C33.833 32.3663 33.7724 32.3226 33.7186 32.2755C33.6715 32.2216 33.6243 32.1611 33.5772 32.0938L28.5903 26.3497C28.4557 26.1814 28.311 26.0636 28.1562 25.9963C28.0014 25.9223 27.7658 25.8853 27.4495 25.8853H26.5611V32.5077H24.6128V14H26.5611V24.3811Z" fill="white"/>
<path d="M17.2702 27.2245C17.8288 27.2245 18.3201 27.1505 18.7441 27.0024C19.1748 26.8544 19.5349 26.6491 19.8243 26.3866C20.1204 26.1174 20.3425 25.7978 20.4906 25.4276C20.6386 25.0575 20.7126 24.6503 20.7126 24.2061C20.7126 23.2841 20.4266 22.564 19.8546 22.0457C19.2892 21.5275 18.4278 21.2684 17.2702 21.2684H14.9484V27.2245H17.2702ZM17.2702 19.7239C18.1855 19.7239 18.9797 19.8316 19.6527 20.0469C20.3324 20.2556 20.8944 20.555 21.3385 20.9454C21.7827 21.3357 22.1125 21.8068 22.3279 22.3587C22.55 22.9106 22.661 23.5264 22.661 24.2061C22.661 24.8791 22.5432 25.4949 22.3077 26.0535C22.0721 26.6121 21.7255 27.0933 21.2679 27.4971C20.817 27.9009 20.255 28.2172 19.582 28.446C18.9157 28.6681 18.1451 28.7792 17.2702 28.7792H14.9484V39.2377H13L13 19.7239H17.2702Z" fill="white"/>
</svg>
